<?xml version="1.0" standalone="no"?>
<!DOCTYPE svg PUBLIC "-//W3C//DTD SVG 20010904//EN"
 "http://www.w3.org/TR/2001/REC-SVG-20010904/DTD/svg10.dtd">
<svg version="1.0" xmlns="http://www.w3.org/2000/svg"
 width="1163.000000pt" height="1024.000000pt" viewBox="0 0 1163.000000 1024.000000"
 preserveAspectRatio="xMidYMid meet">

<g transform="translate(0.000000,1024.000000) scale(0.100000,-0.100000)"
fill="#000000" stroke="none">
<path d="M5763 10098 c-5 -7 -54 -89 -108 -183 -54 -93 -111 -191 -126 -218
-16 -26 -29 -49 -29 -52 0 -3 -17 -33 -38 -67 -21 -35 -52 -88 -69 -118 -16
-30 -95 -167 -175 -305 -80 -137 -206 -356 -280 -485 -272 -474 -662 -1148
-728 -1260 -37 -63 -144 -248 -237 -410 -94 -162 -196 -340 -228 -395 -32 -55
-141 -244 -243 -420 -101 -176 -236 -410 -300 -520 -216 -373 -484 -840 -510
-885 -14 -25 -62 -108 -107 -185 -45 -77 -127 -219 -182 -315 -55 -96 -142
-247 -193 -335 -172 -297 -306 -529 -445 -770 -76 -132 -181 -314 -233 -405
-52 -91 -137 -238 -188 -328 -52 -89 -125 -215 -163 -280 -38 -64 -110 -189
-161 -277 -173 -301 -495 -858 -595 -1030 -32 -55 -124 -215 -205 -355 -81
-140 -163 -282 -183 -315 -21 -34 -32 -62 -27 -65 6 -4 519 -6 1140 -5 976 1
1132 3 1144 15 8 8 76 123 151 255 75 132 141 245 145 250 7 8 217 373 306
530 12 22 92 161 178 309 86 148 156 271 156 273 0 3 8 17 19 31 10 15 79 133
153 262 129 225 252 437 526 910 68 118 212 368 320 555 203 353 343 596 502
870 188 326 318 551 338 585 11 19 51 89 89 155 116 200 323 558 452 782 67
116 128 216 136 223 15 13 30 -6 90 -115 21 -38 68 -122 105 -185 37 -63 123
-212 190 -330 68 -118 160 -278 205 -355 96 -163 542 -934 758 -1310 82 -143
180 -312 217 -375 37 -63 147 -254 245 -425 98 -170 252 -438 343 -595 91
-157 190 -328 220 -380 31 -52 115 -198 188 -325 72 -126 179 -311 236 -410
57 -99 166 -288 242 -420 76 -132 167 -287 201 -345 34 -58 99 -170 144 -250
45 -80 89 -154 97 -165 15 -20 26 -20 1149 -20 624 0 1137 3 1140 7 7 7 -26
66 -240 438 -65 113 -161 279 -213 370 -105 183 -241 419 -352 610 -274 473
-347 599 -820 1420 -278 482 -392 680 -520 900 -62 107 -133 231 -158 275 -24
44 -48 85 -52 90 -4 6 -66 111 -137 235 -72 124 -190 329 -263 455 -73 127
-218 379 -323 560 -545 946 -736 1276 -776 1343 -17 29 -31 55 -31 57 0 3 -16
29 -35 59 -19 30 -35 57 -35 59 0 3 -87 155 -190 332 -10 17 -49 84 -87 150
-39 66 -96 165 -128 220 -32 55 -73 127 -92 160 -18 33 -37 67 -42 75 -12 18
-164 280 -368 635 -83 143 -199 343 -258 445 -59 102 -205 354 -323 560 -345
601 -313 549 -329 528z"/>
</g>
</svg>
