<?xml version="1.0" standalone="no"?>
<!DOCTYPE svg PUBLIC "-//W3C//DTD SVG 20010904//EN"
 "http://www.w3.org/TR/2001/REC-SVG-20010904/DTD/svg10.dtd">
<svg version="1.0" xmlns="http://www.w3.org/2000/svg"
 width="1280.000000pt" height="231.000000pt" viewBox="0 0 1280.000000 231.000000"
 preserveAspectRatio="xMidYMid meet">

<g transform="translate(0.000000,231.000000) scale(0.100000,-0.100000)"
fill="#000000" stroke="none">
<path d="M11374 2102 c-50 -86 -176 -303 -279 -482 -212 -368 -263 -456 -546
-945 -247 -426 -299 -518 -299 -527 0 -5 112 -8 250 -8 248 0 249 0 261 22 6
13 79 139 160 281 82 141 216 373 298 515 81 141 170 294 196 340 26 45 50 82
53 82 4 0 68 -107 143 -238 337 -585 514 -891 546 -945 l34 -57 250 0 c137 0
249 3 249 7 0 4 -27 52 -59 107 -32 56 -112 193 -177 306 -65 113 -197 342
-294 510 -299 517 -431 746 -561 972 -68 120 -126 218 -129 218 -3 0 -46 -71
-96 -158z"/>
<path d="M5512 2229 c-159 -20 -337 -88 -473 -179 -79 -54 -212 -185 -266
-265 -125 -185 -183 -378 -183 -610 0 -358 143 -654 414 -856 211 -158 472
-231 742 -209 162 13 276 45 414 116 267 137 445 365 527 671 23 86 26 118 27
268 1 145 -3 183 -22 258 -62 248 -197 459 -381 599 -86 65 -265 152 -364 178
-149 38 -295 47 -435 29z m368 -403 c203 -71 337 -231 391 -464 19 -80 21
-112 16 -225 -9 -192 -47 -309 -140 -433 -113 -148 -278 -224 -492 -224 -305
0 -512 153 -605 445 -28 88 -39 297 -21 401 39 220 155 386 328 470 106 51
176 64 323 60 104 -3 138 -8 200 -30z"/>
<path d="M1287 2128 c-31 -57 -68 -121 -81 -143 -13 -22 -92 -159 -176 -305
-183 -318 -312 -542 -410 -710 -40 -69 -124 -215 -188 -325 -63 -110 -155
-269 -204 -353 -49 -84 -92 -160 -95 -168 -4 -12 32 -14 245 -14 l250 0 75
127 c68 116 191 330 371 643 214 372 272 469 280 467 9 -3 182 -296 256 -432
33 -62 180 -317 395 -687 l68 -118 254 0 254 0 -12 23 c-7 12 -22 38 -34 57
-12 19 -133 228 -270 465 -136 237 -277 482 -314 545 -114 195 -295 509 -363
630 -133 236 -230 400 -236 400 -4 0 -33 -46 -65 -102z"/>
<path d="M7230 1171 l0 -1039 123 -6 c67 -3 158 -4 202 -2 l80 4 3 396 c2 306
5 396 15 396 6 1 82 1 167 0 85 0 208 4 274 10 212 19 388 96 499 220 54 60
118 186 138 270 18 77 15 231 -6 310 -56 214 -223 379 -445 439 -127 34 -231
41 -647 41 l-403 0 0 -1039z m839 689 c70 -12 145 -46 178 -82 81 -86 92 -282
23 -392 -65 -101 -159 -128 -438 -124 l-187 3 -3 290 c-1 159 0 295 3 302 6
16 328 18 424 3z"/>
<path d="M9307 2204 c-11 -11 -8 -2062 3 -2069 8 -5 279 -10 373 -6 l37 1 -2
1038 -3 1037 -201 3 c-110 1 -203 -1 -207 -4z"/>
<path d="M2600 2015 l0 -165 278 -2 277 -3 3 -873 2 -872 205 0 205 0 2 872 3
873 278 3 277 2 0 165 0 165 -765 0 -765 0 0 -165z"/>
</g>
</svg>
