<?xml version="1.0" standalone="no"?>
<!DOCTYPE svg PUBLIC "-//W3C//DTD SVG 20010904//EN"
 "http://www.w3.org/TR/2001/REC-SVG-20010904/DTD/svg10.dtd">
<svg version="1.0" xmlns="http://www.w3.org/2000/svg"
 width="1259.000000pt" height="212.000000pt" viewBox="0 0 1259.000000 212.000000"
 preserveAspectRatio="xMidYMid meet">

<g transform="translate(0.000000,212.000000) scale(0.100000,-0.100000)"
fill="#000000" stroke="none">
<path d="M11345 1938 c-49 -84 -152 -263 -230 -398 -310 -535 -673 -1163 -761
-1315 -50 -88 -90 -163 -87 -168 2 -4 109 -7 237 -7 l234 0 40 68 c22 37 91
155 152 262 399 695 496 860 505 860 6 0 19 -17 31 -38 11 -20 56 -98 99 -172
43 -74 138 -241 213 -370 74 -129 184 -319 244 -423 l110 -187 229 0 229 0 0
23 c0 21 -94 189 -482 857 -157 271 -307 531 -551 955 -60 105 -113 194 -117
198 -4 5 -47 -61 -95 -145z"/>
<path d="M5780 2064 c-108 -12 -190 -29 -263 -53 -358 -122 -607 -417 -667
-793 -18 -113 -8 -340 20 -448 71 -274 262 -510 515 -637 244 -123 562 -143
825 -51 398 139 649 485 667 920 11 264 -64 497 -225 699 -142 176 -361 305
-592 347 -66 12 -230 22 -280 16z m220 -369 c189 -44 322 -149 400 -317 52
-112 65 -178 64 -338 -1 -124 -4 -157 -25 -225 -90 -293 -311 -448 -618 -432
-288 14 -494 191 -556 481 -23 105 -16 331 13 423 43 136 141 269 244 331 137
82 324 112 478 77z"/>
<path d="M1218 1963 c-102 -180 -352 -614 -595 -1033 -381 -659 -513 -888
-513 -894 0 -3 107 -6 239 -6 l238 0 45 78 c46 78 524 905 601 1039 23 40 45
72 49 70 7 -2 197 -327 546 -934 l145 -253 238 0 c155 0 239 4 239 10 0 6 -37
74 -83 153 -46 78 -145 248 -219 377 -75 129 -277 480 -450 780 -173 300 -336
582 -362 628 -26 45 -51 82 -55 82 -4 0 -32 -44 -63 -97z"/>
<path d="M2810 1880 l0 -160 265 0 265 0 0 -840 0 -840 198 2 197 3 3 838 2
837 265 0 265 0 0 160 0 160 -730 0 -730 0 0 -160z"/>
<path d="M7370 1041 l0 -1001 198 2 197 3 3 381 2 382 248 4 c327 6 420 28
567 133 164 117 243 292 232 513 -11 235 -117 398 -322 497 -157 76 -171 77
-677 82 l-448 5 0 -1001z m874 649 c121 -46 172 -135 164 -289 -7 -130 -53
-202 -157 -243 -50 -20 -78 -22 -268 -26 l-213 -4 0 297 0 297 208 -5 c182 -4
214 -8 266 -27z"/>
<path d="M9335 2028 c-3 -7 -4 -456 -3 -998 l3 -985 198 -3 197 -2 0 1000 0
1000 -195 0 c-147 0 -197 -3 -200 -12z"/>
</g>
</svg>
