<svg version="1.1" id="Layer_1" xmlns="http://www.w3.org/2000/svg" xmlns:xlink="http://www.w3.org/1999/xlink" x="0px" y="0px"
	 width="100%" viewBox="0 0 1280 242" enable-background="new 0 0 1280 242" xml:space="preserve">
<path fill="#010101" opacity="1.000000" stroke="none" 
	d="
M1281.000000,227.000000 
	C1281.000000,232.332596 1281.000000,237.665176 1281.000000,242.998322 
	C854.393494,242.998886 427.787018,242.998886 1.090264,242.998886 
	C1.090264,162.404831 1.090264,81.809540 1.090264,1.107119 
	C427.666656,1.107119 854.333313,1.107119 1281.000000,1.107256 
	C1281.000000,74.097427 1281.000000,147.087463 1280.750488,220.899689 
	C1275.621094,214.193222 1270.431519,206.844666 1265.925537,199.098373 
	C1256.577637,183.028397 1247.697876,166.686813 1238.437500,150.565033 
	C1216.486328,112.348930 1194.431885,74.192162 1172.403564,36.020393 
	C1167.568481,27.641857 1162.668823,19.300568 1157.451416,10.345716 
	C1115.723999,82.683403 1074.410034,154.304230 1032.989136,226.110489 
	C1034.061157,226.502274 1034.506226,226.806824 1034.951660,226.807205 
	C1050.442627,226.820541 1065.934692,226.890244 1081.422363,226.657074 
	C1082.905151,226.634735 1084.916626,225.023865 1085.744385,223.603638 
	C1103.575562,193.008713 1121.271240,162.334854 1138.996948,131.678558 
	C1145.062744,121.187881 1151.139160,110.703430 1157.339844,99.993271 
	C1158.041992,101.022545 1158.556396,101.679947 1158.969482,102.395897 
	C1182.070435,142.441177 1205.199707,182.470230 1228.184570,222.582062 
	C1229.975220,225.707047 1231.857910,226.995697 1235.546753,226.952499 
	C1250.695557,226.775040 1265.848511,226.952866 1281.000000,227.000000 
M504.779541,210.716339 
	C511.319305,214.312378 517.564575,218.651566 524.448425,221.379364 
	C559.476440,235.259644 594.038269,233.702148 626.004639,213.603958 
	C666.066650,188.415802 680.906433,150.087662 674.486816,104.451485 
	C665.835571,42.950340 610.125732,3.585437 546.165710,15.549932 
	C497.492157,24.654896 464.165192,61.818382 459.926025,111.282669 
	C456.433411,152.035522 470.479889,185.769211 504.779541,210.716339 
M727.113525,86.499992 
	C727.113525,133.544357 727.113525,180.588730 727.113525,227.685974 
	C741.661804,227.685974 755.274963,227.685974 769.533264,227.685974 
	C769.533264,200.747482 769.533264,174.034622 769.533264,146.810562 
	C771.960632,146.810562 773.746338,146.836487 775.531189,146.806488 
	C789.681030,146.568665 803.858215,146.787857 817.973389,145.956146 
	C835.440369,144.926910 851.207642,138.838120 863.712708,126.296410 
	C878.224670,111.741692 882.979492,93.455040 880.806396,73.545074 
	C878.304382,50.620991 866.313232,33.982346 845.216614,24.171177 
	C832.566833,18.288252 819.087830,16.524893 805.357239,16.437489 
	C781.202881,16.283731 757.046997,16.385433 732.891724,16.399632 
	C731.109497,16.400679 729.327393,16.558187 727.114563,16.663441 
	C727.114563,39.916481 727.114563,62.708233 727.113525,86.499992 
M95.274109,74.738991 
	C65.674500,126.068855 36.074883,177.398712 5.951381,229.637070 
	C8.973176,229.637070 10.759622,229.637070 12.546068,229.637100 
	C25.708513,229.637421 38.874882,229.457962 52.031063,229.745163 
	C56.094501,229.833878 58.240635,228.481567 60.226788,225.012451 
	C80.955666,188.806595 101.848755,152.694733 122.713387,116.566689 
	C125.303596,112.081627 127.992714,107.653679 130.919495,102.721512 
	C132.236404,104.893028 133.116745,106.283806 133.938416,107.708420 
	C156.459030,146.754440 179.009293,185.783478 201.426880,224.888580 
	C203.382401,228.299744 205.507233,229.813599 209.623947,229.722458 
	C223.279434,229.420151 236.945175,229.589172 250.606903,229.550308 
	C252.041031,229.546234 253.474640,229.362747 255.765137,229.202606 
	C214.064926,156.937180 172.741333,85.324387 130.960449,12.919146 
	C118.871849,33.883892 107.270576,54.003490 95.274109,74.738991 
M364.575500,53.143135 
	C380.654694,53.143135 396.733856,53.143135 412.772705,53.143135 
	C412.772705,41.513733 412.772705,30.578999 412.772705,19.482380 
	C361.163635,19.482380 309.800385,19.482380 258.259003,19.482380 
	C258.259003,30.772020 258.259003,41.688206 258.259003,53.140007 
	C276.898468,53.140007 295.306061,53.140007 314.420898,53.140007 
	C314.420898,112.517540 314.420898,171.363647 314.420898,230.257965 
	C328.893341,230.257965 342.647705,230.257965 357.024017,230.257965 
	C357.024017,171.060959 357.024017,112.199112 357.024017,53.141193 
	C359.630859,53.141193 361.613861,53.141193 364.575500,53.143135 
M980.149658,87.500046 
	C980.149658,63.943192 980.149658,40.386337 980.149658,16.818531 
	C965.627563,16.818531 951.912964,16.818531 938.130615,16.818531 
	C938.130615,87.281288 938.130615,157.317841 938.130615,227.592957 
	C952.196777,227.592957 965.915771,227.592957 980.149658,227.592957 
	C980.149658,181.008865 980.149658,134.754456 980.149658,87.500046 
z"/>
<path fill="#FBFBFB" opacity="1.000000" stroke="none" 
	d="
M1281.000000,226.571533 
	C1265.848511,226.952866 1250.695557,226.775040 1235.546753,226.952499 
	C1231.857910,226.995697 1229.975220,225.707047 1228.184570,222.582062 
	C1205.199707,182.470230 1182.070435,142.441177 1158.969482,102.395897 
	C1158.556396,101.679947 1158.041992,101.022545 1157.339844,99.993271 
	C1151.139160,110.703430 1145.062744,121.187881 1138.996948,131.678558 
	C1121.271240,162.334854 1103.575562,193.008713 1085.744385,223.603638 
	C1084.916626,225.023865 1082.905151,226.634735 1081.422363,226.657074 
	C1065.934692,226.890244 1050.442627,226.820541 1034.951660,226.807205 
	C1034.506226,226.806824 1034.061157,226.502274 1032.989136,226.110489 
	C1074.410034,154.304230 1115.723999,82.683403 1157.451416,10.345716 
	C1162.668823,19.300568 1167.568481,27.641857 1172.403564,36.020393 
	C1194.431885,74.192162 1216.486328,112.348930 1238.437500,150.565033 
	C1247.697876,166.686813 1256.577637,183.028397 1265.925537,199.098373 
	C1270.431519,206.844666 1275.621094,214.193222 1280.750488,221.360947 
	C1281.000000,222.714355 1281.000000,224.428711 1281.000000,226.571533 
z"/>
<path fill="#FBFBFB" opacity="1.000000" stroke="none" 
	d="
M504.485046,210.508133 
	C470.479889,185.769211 456.433411,152.035522 459.926025,111.282669 
	C464.165192,61.818382 497.492157,24.654896 546.165710,15.549932 
	C610.125732,3.585437 665.835571,42.950340 674.486816,104.451485 
	C680.906433,150.087662 666.066650,188.415802 626.004639,213.603958 
	C594.038269,233.702148 559.476440,235.259644 524.448425,221.379364 
	C517.564575,218.651566 511.319305,214.312378 504.485046,210.508133 
M517.217529,74.752434 
	C508.252686,86.729691 504.125671,100.406532 503.217072,115.153252 
	C502.117340,133.001541 504.813721,150.122009 514.871216,165.274139 
	C528.934753,186.461426 549.693787,193.630600 574.092285,191.851990 
	C594.059021,190.396454 610.153687,181.647003 620.787476,164.351791 
	C634.107056,142.688232 635.119080,119.345764 628.404663,95.499527 
	C624.716919,82.402504 617.239502,71.540901 606.199951,63.158699 
	C584.165771,46.428402 539.036804,45.986126 517.217529,74.752434 
z"/>
<path fill="#FBFBFB" opacity="1.000000" stroke="none" 
	d="
M727.114014,85.999985 
	C727.114563,62.708233 727.114563,39.916481 727.114563,16.663441 
	C729.327393,16.558187 731.109497,16.400679 732.891724,16.399632 
	C757.046997,16.385433 781.202881,16.283731 805.357239,16.437489 
	C819.087830,16.524893 832.566833,18.288252 845.216614,24.171177 
	C866.313232,33.982346 878.304382,50.620991 880.806396,73.545074 
	C882.979492,93.455040 878.224670,111.741692 863.712708,126.296410 
	C851.207642,138.838120 835.440369,144.926910 817.973389,145.956146 
	C803.858215,146.787857 789.681030,146.568665 775.531189,146.806488 
	C773.746338,146.836487 771.960632,146.810562 769.533264,146.810562 
	C769.533264,174.034622 769.533264,200.747482 769.533264,227.685974 
	C755.274963,227.685974 741.661804,227.685974 727.113525,227.685974 
	C727.113525,180.588730 727.113525,133.544357 727.114014,85.999985 
M812.564758,51.789864 
	C805.101868,51.544552 797.640503,51.212730 790.175659,51.079498 
	C783.401550,50.958599 776.623596,51.053925 769.747559,51.053925 
	C769.747559,71.722481 769.747559,91.796738 769.747559,111.432571 
	C784.847107,111.432571 799.863220,112.654221 814.586304,111.099953 
	C830.315186,109.439499 838.199524,97.573845 837.818970,80.361656 
	C837.464417,64.326393 828.987976,54.431107 812.564758,51.789864 
z"/>
<path fill="#FBFBFB" opacity="1.000000" stroke="none" 
	d="
M95.471710,74.431038 
	C107.270576,54.003490 118.871849,33.883892 130.960449,12.919146 
	C172.741333,85.324387 214.064926,156.937180 255.765137,229.202606 
	C253.474640,229.362747 252.041031,229.546234 250.606903,229.550308 
	C236.945175,229.589172 223.279434,229.420151 209.623947,229.722458 
	C205.507233,229.813599 203.382401,228.299744 201.426880,224.888580 
	C179.009293,185.783478 156.459030,146.754440 133.938416,107.708420 
	C133.116745,106.283806 132.236404,104.893028 130.919495,102.721512 
	C127.992714,107.653679 125.303596,112.081627 122.713387,116.566689 
	C101.848755,152.694733 80.955666,188.806595 60.226788,225.012451 
	C58.240635,228.481567 56.094501,229.833878 52.031063,229.745163 
	C38.874882,229.457962 25.708513,229.637421 12.546068,229.637100 
	C10.759622,229.637070 8.973176,229.637070 5.951381,229.637070 
	C36.074883,177.398712 65.674500,126.068855 95.471710,74.431038 
z"/>
<path fill="#FAFAFA" opacity="1.000000" stroke="none" 
	d="
M364.086182,53.142166 
	C361.613861,53.141193 359.630859,53.141193 357.024017,53.141193 
	C357.024017,112.199112 357.024017,171.060959 357.024017,230.257965 
	C342.647705,230.257965 328.893341,230.257965 314.420898,230.257965 
	C314.420898,171.363647 314.420898,112.517540 314.420898,53.140007 
	C295.306061,53.140007 276.898468,53.140007 258.259003,53.140007 
	C258.259003,41.688206 258.259003,30.772020 258.259003,19.482380 
	C309.800385,19.482380 361.163635,19.482380 412.772705,19.482380 
	C412.772705,30.578999 412.772705,41.513733 412.772705,53.143135 
	C396.733856,53.143135 380.654694,53.143135 364.086182,53.142166 
z"/>
<path fill="#FCFCFC" opacity="1.000000" stroke="none" 
	d="
M980.149658,88.000046 
	C980.149658,134.754456 980.149658,181.008865 980.149658,227.592957 
	C965.915771,227.592957 952.196777,227.592957 938.130615,227.592957 
	C938.130615,157.317841 938.130615,87.281288 938.130615,16.818531 
	C951.912964,16.818531 965.627563,16.818531 980.149658,16.818531 
	C980.149658,40.386337 980.149658,63.943192 980.149658,88.000046 
z"/>
<path fill="#020202" opacity="1.000000" stroke="none" 
	d="
M517.424561,74.459763 
	C539.036804,45.986126 584.165771,46.428402 606.199951,63.158699 
	C617.239502,71.540901 624.716919,82.402504 628.404663,95.499527 
	C635.119080,119.345764 634.107056,142.688232 620.787476,164.351791 
	C610.153687,181.647003 594.059021,190.396454 574.092285,191.851990 
	C549.693787,193.630600 528.934753,186.461426 514.871216,165.274139 
	C504.813721,150.122009 502.117340,133.001541 503.217072,115.153252 
	C504.125671,100.406532 508.252686,86.729691 517.424561,74.459763 
z"/>
<path fill="#020202" opacity="1.000000" stroke="none" 
	d="
M812.995361,51.837723 
	C828.987976,54.431107 837.464417,64.326393 837.818970,80.361656 
	C838.199524,97.573845 830.315186,109.439499 814.586304,111.099953 
	C799.863220,112.654221 784.847107,111.432571 769.747559,111.432571 
	C769.747559,91.796738 769.747559,71.722481 769.747559,51.053925 
	C776.623596,51.053925 783.401550,50.958599 790.175659,51.079498 
	C797.640503,51.212730 805.101868,51.544552 812.995361,51.837723 
z"/>
</svg>